<svg width="128" height="87" viewBox="0 0 128 87" fill="none" xmlns="http://www.w3.org/2000/svg">
<path d="M106.71 70.7588C109.195 70.7588 111.21 65.6101 111.21 59.2588C111.21 52.9075 109.195 47.7588 106.71 47.7588C104.225 47.7588 102.21 52.9075 102.21 59.2588C102.21 65.6101 104.225 70.7588 106.71 70.7588Z" fill="#D3F0F2" stroke="#2D6D9B"/>
<path d="M106.71 56.8384V78.3384" stroke="#2D6D9B" stroke-linecap="round" stroke-linejoin="round"/>
<path d="M99.71 74.7588C102.195 74.7588 104.21 69.6101 104.21 63.2588C104.21 56.9075 102.195 51.7588 99.71 51.7588C97.2247 51.7588 95.21 56.9075 95.21 63.2588C95.21 69.6101 97.2247 74.7588 99.71 74.7588Z" fill="#D3F0F2" stroke="#2D6D9B"/>
<path d="M99.71 58.8384V80.3384" stroke="#2D6D9B" stroke-linecap="round" stroke-linejoin="round"/>
<path d="M29.71 71.7598C32.1952 71.7598 34.21 66.611 34.21 60.2598C34.21 53.9085 32.1952 48.7598 29.71 48.7598C27.2247 48.7598 25.21 53.9085 25.21 60.2598C25.21 66.611 27.2247 71.7598 29.71 71.7598Z" fill="#D3F0F2" stroke="#2D6D9B"/>
<path d="M29.71 55.8394V77.3394" stroke="#2D6D9B" stroke-linecap="round" stroke-linejoin="round"/>
<g filter="url(#filter0_d)">
<path fill-rule="evenodd" clip-rule="evenodd" d="M44.8504 24.3389L89.7098 34.0001C93.2098 42.0001 94.7098 45.5001 94.2099 57.5001C93.2099 71.5001 86.7099 79.5001 86.7099 79.5001L44.8504 80.3389C36.2099 57.0001 37.7099 46.5001 44.8504 24.3389Z" fill="white" stroke="#2D6D9B" stroke-linecap="round" stroke-linejoin="round"/>
<path fill-rule="evenodd" clip-rule="evenodd" d="M86.21 79L58.21 80V48L86.21 79Z" fill="#F5F5F5"/>
<path fill-rule="evenodd" clip-rule="evenodd" d="M42.8203 21.6844L96.1959 31.0486C97.1526 31.2164 97.8503 32.0473 97.8503 33.0185V33.3388C97.8503 34.2665 97.0983 35.0185 96.1707 35.0185C96.0734 35.0185 95.9763 35.0101 95.8804 34.9932L42.5047 25.6291C41.5481 25.4613 40.8503 24.6304 40.8503 23.6592V23.3388C40.8503 22.4112 41.6024 21.6592 42.53 21.6592C42.6273 21.6592 42.7244 21.6676 42.8203 21.6844Z" fill="#2D6D9B"/>
<path fill-rule="evenodd" clip-rule="evenodd" d="M89.1447 30.7769V24.3389C89.1447 23.7866 88.697 23.3389 88.1447 23.3389H81.8505C81.2982 23.3389 80.8505 23.7866 80.8505 24.3389V29.3389L89.1447 30.7769Z" fill="#DAE2E6" stroke="#2D6D9B" stroke-linecap="round" stroke-linejoin="round"/>
<path d="M64.3504 38.8389H56.3504C54.8341 42.9898 54.6943 45.4176 56.3504 50.0264H64.3504V38.8389Z" fill="#D3F0F2" stroke="#2D6D9B"/>
<path d="M60.3503 39.085V50.1415" stroke="#99C9CC" stroke-width="0.5" stroke-linecap="square"/>
<path d="M64.096 44.3389H55.7098" stroke="#99C9CC" stroke-width="0.5" stroke-linecap="square"/>
<path d="M65.4503 50.3389H55.229" stroke="#2D6D9B" stroke-linecap="round" stroke-linejoin="round"/>
<path d="M64.3505 58.8389H56.3505V70.0264H64.3505V58.8389Z" fill="#D3F0F2" stroke="#2D6D9B"/>
<path d="M60.3505 59.085V70.1415" stroke="#99C9CC" stroke-width="0.5" stroke-linecap="square"/>
<path d="M64.0961 64.3389H56.6075" stroke="#99C9CC" stroke-width="0.5" stroke-linecap="square"/>
<path d="M65.4505 70.3389H55.2291" stroke="#2D6D9B" stroke-linecap="round" stroke-linejoin="round"/>
<path d="M85.0459 58.8389H76.7504V70.0264L84.2098 70.0001C85.5943 66.0101 86.5892 63.6295 85.0459 58.8389Z" fill="#D3F0F2" stroke="#2D6D9B"/>
<path d="M80.7504 59.085V69.7706" stroke="#99C9CC" stroke-width="0.5" stroke-linecap="square"/>
<path d="M85.5185 64.3389H77.0074" stroke="#99C9CC" stroke-width="0.5" stroke-linecap="square"/>
<path d="M85.8504 70.3389H75.629" stroke="#2D6D9B" stroke-linecap="round" stroke-linejoin="round"/>
<path fill-rule="evenodd" clip-rule="evenodd" d="M47.8504 40.3389L37.8504 51.8821V55.696C34.7099 65.5001 35.2099 68.5001 37.8504 80.3389H57.8504C62.7099 67.5001 57.8504 55.696 57.8504 55.696V51.8821L47.8504 40.3389Z" fill="white" stroke="#2D6D9B" stroke-linecap="round" stroke-linejoin="round"/>
<path d="M116.71 59C116.887 59.221 117.103 59.6622 117.319 60.2511C118.319 62.3752 119.538 65.36 119.21 67C118.81 69 116.71 72.6667 115.71 74C116.377 72.5 117.81 70.2 118.21 67C118.504 64.6485 117.916 61.883 117.319 60.2511C117.099 59.7848 116.89 59.36 116.71 59Z" fill="#2D6D9B"/>
<path d="M39.7381 27.145C39.4107 27.3961 38.9411 27.9587 38.4139 28.7425C36.2103 31.4695 33.3671 35.3856 33.1523 37.9844C32.8902 41.1538 34.2557 47.5768 35.0715 50.0184C34.7728 47.4771 33.7595 43.396 34.5029 38.4327C35.0492 34.7854 36.9528 30.9146 38.4139 28.7425C38.8976 28.1438 39.3506 27.6025 39.7381 27.145Z" fill="#2D6D9B"/>
<path d="M119.054 62C119.203 62.1473 119.386 62.4415 119.568 62.8341C120.412 64.2501 121.441 66.24 121.164 67.3333C120.826 68.6667 119.054 71.1111 118.21 72C118.773 71 119.982 69.4667 120.32 67.3333C120.568 65.7657 120.072 63.922 119.568 62.8341C119.382 62.5232 119.206 62.24 119.054 62Z" fill="#2D6D9B"/>
<path d="M35.9815 30.5501C35.7314 30.7069 35.3793 31.069 34.9891 31.5787C33.3398 33.3369 31.2249 35.8748 31.1407 37.6269C31.0381 39.7637 32.3266 44.1713 33.0505 45.8588C32.7313 44.1247 31.7977 41.3184 32.2212 37.9856C32.5325 35.5365 33.9075 32.9911 34.9891 31.5787C35.3511 31.1927 35.6907 30.8443 35.9815 30.5501Z" fill="#2D6D9B"/>
<path d="M47.3503 48.8389C47.9026 48.8389 48.3503 48.3912 48.3503 47.8389C48.3503 47.2866 47.9026 46.8389 47.3503 46.8389C46.7981 46.8389 46.3503 47.2866 46.3503 47.8389C46.3503 48.3912 46.7981 48.8389 47.3503 48.8389Z" fill="#D3F0F2" stroke="#2D6D9B"/>
<path fill-rule="evenodd" clip-rule="evenodd" d="M47.8503 39.3389L61.9754 52.8196C61.9862 52.8299 61.9968 52.8405 62.0072 52.8512C62.4547 53.3125 62.4435 54.0493 61.9822 54.4968C61.4985 54.9659 60.7296 54.9659 60.2459 54.4968L47.8503 42.473L35.2829 54.6635C34.895 55.0398 34.2783 55.0398 33.8904 54.6635L33.5963 54.3783C33.1999 53.9938 33.1903 53.3607 33.5748 52.9642C33.5838 52.955 33.5929 52.946 33.6022 52.9371L47.8503 39.3389Z" fill="#2D6D9B"/>
<path d="M47.8503 68.3389C50.0595 68.3389 51.8503 70.1297 51.8503 72.3389V80.3389H43.8503V72.3389C43.8503 70.1297 45.6412 68.3389 47.8503 68.3389Z" fill="#F5F1ED" stroke="#005990"/>
<path d="M51.7504 52.8389H43.7504V64.0264H51.7504V52.8389Z" fill="#D3F0F2" stroke="#2D6D9B"/>
<path d="M47.7504 53.0991V63.7671" stroke="#99C9CC" stroke-width="0.5" stroke-linecap="square"/>
<path d="M51.493 58.3389H44.0099" stroke="#99C9CC" stroke-width="0.5" stroke-linecap="square"/>
<path d="M52.8504 64.3389H42.629" stroke="#2D6D9B" stroke-linecap="round" stroke-linejoin="round"/>
<path d="M83.9762 38.8389H76.7504V50.0264L84.7098 50.0001C86.2098 44.5001 85.5543 42.6947 83.9762 38.8389Z" fill="#D3F0F2" stroke="#2D6D9B"/>
<path d="M80.7504 39.085V49.7706" stroke="#99C9CC" stroke-width="0.5" stroke-linecap="square"/>
<path d="M85.7098 44.3389H77.0074" stroke="#99C9CC" stroke-width="0.5" stroke-linecap="square"/>
<path d="M85.8504 50.3389H75.629" stroke="#2D6D9B" stroke-linecap="round" stroke-linejoin="round"/>
</g>
<path d="M12.5305 44.4084L14.8323 43.685C16.2427 43.2438 17.7811 43.6094 18.9125 44.6548L20.7578 46.364L19.9469 43.983C19.4521 42.5243 19.7438 40.9701 20.7205 39.8611L22.3177 38.0526L20.0158 38.776C18.6055 39.2172 17.067 38.8516 15.9356 37.8062L14.0904 36.097L14.9012 38.4779C15.396 39.9367 15.1044 41.4909 14.1276 42.5998L12.5305 44.4084Z" fill="#7CD2DE"/>
<path d="M15.2197 27.3575L19.0447 26.1553C21.3884 25.4221 23.9449 26.0297 25.825 27.7669L28.8914 30.6071L27.544 26.6506C26.7217 24.2265 27.2064 21.6439 28.8295 19.801L31.4835 16.7956L27.6585 17.9978C25.3147 18.731 22.7582 18.1233 20.8782 16.3862L17.8118 13.546L19.1592 17.5025C19.9815 19.9266 19.4968 22.5092 17.8737 24.3521L15.2197 27.3575Z" fill="#7CD2DE"/>
<path d="M39.9587 13.4794L41.1924 13.0916C41.9483 12.8552 42.7728 13.0511 43.3792 13.6114L44.3682 14.5275L43.9336 13.2514C43.6684 12.4695 43.8247 11.6366 44.3482 11.0422L45.2042 10.0729L43.9705 10.4606C43.2146 10.6971 42.3901 10.5011 41.7837 9.94082L40.7947 9.02478L41.2293 10.3009C41.4945 11.0827 41.3382 11.9157 40.8147 12.51L39.9587 13.4794Z" fill="#7CD2DE"/>
<path d="M20.71 73.7598C23.1952 73.7598 25.21 68.611 25.21 62.2598C25.21 55.9085 23.1952 50.7598 20.71 50.7598C18.2247 50.7598 16.21 55.9085 16.21 62.2598C16.21 68.611 18.2247 73.7598 20.71 73.7598Z" fill="#D3F0F2" stroke="#2D6D9B"/>
<path d="M20.71 59.8394V81.3394" stroke="#2D6D9B" stroke-linecap="round" stroke-linejoin="round"/>
<path d="M108.21 22.9231L100.21 22L106.432 23.8462L104.654 34L108.21 22.9231Z" fill="#2D6D9B"/>
<path d="M49.21 10.6923L54.21 10L50.3211 11.3846L51.4322 19L49.21 10.6923Z" fill="#2D6D9B"/>
<path d="M104.21 26.1538L94.21 25L101.988 27.3077L99.7655 40L104.21 26.1538Z" fill="#2D6D9B"/>
<path d="M51.21 12.8462L59.21 12L52.9877 13.6923L54.7655 23L51.21 12.8462Z" fill="#2D6D9B"/>
<defs>
<filter id="filter0_d" x="29.1349" y="19.6592" width="98.0751" height="67.1798" filterUnits="userSpaceOnUse" color-interpolation-filters="sRGB">
<feFlood flood-opacity="0" result="BackgroundImageFix"/>
<feColorMatrix in="SourceAlpha" type="matrix" values="0 0 0 0 0 0 0 0 0 0 0 0 0 0 0 0 0 0 127 0"/>
<feOffset dx="2" dy="2"/>
<feGaussianBlur stdDeviation="2"/>
<feColorMatrix type="matrix" values="0 0 0 0 0.596078 0 0 0 0 0.788235 0 0 0 0 0.8 0 0 0 1 0"/>
<feBlend mode="normal" in2="BackgroundImageFix" result="effect1_dropShadow"/>
<feBlend mode="normal" in="SourceGraphic" in2="effect1_dropShadow" result="shape"/>
</filter>
</defs>
</svg>
